# xmcd CD database file
#
# Track frame offsets:
#	150
#	13464
#	29207
#	42736
#	58352
#	71453
#	86999
#	99881
#	117556
#	131337
#	146326
#	163841
#	179083
#	200983
#	219418
#	235316
#	249036
#	264641
#	282622
#	297110
#	315566
#
# Disc length: 4396 seconds
#
# Revision: 0
# Processed by: cddbd v1.5.2PL0 Copyright (c) Steve Scherf et al.
# Submitted via: CDex 1.51
#
DISCID=58112a15
DTITLE=Mike Denver - Live In Concert
DYEAR=1900
DGENRE=Country
TTITLE0=The Galway Girl
TTITLE1=Seasons In The Sun
TTITLE2=Sylvia's Mother
TTITLE3=You're The Best Friend
TTITLE4=Sentimental Irish
TTITLE5=A Dream Come True
TTITLE6=The Dance
TTITLE7=The Comfort of Her Wings
TTITLE8=Back In '68
TTITLE9=Blue Eyes Cryin' In The Rain
TTITLE10=Absent Friends
TTITLE11=My Darling Kathleen
TTITLE12=Tribute To Johnny Cash
TTITLE13=Seven Spanish Angels
TTITLE14=Pay Me My Money Down
TTITLE15=Messenger Boy
TTITLE16=Las Vegas (In The Hills of Donegal)
TTITLE17=The Chain of Love
TTITLE18=You're Such A Good Lookin' Woman
TTITLE19=American Pie
TTITLE20=Beautiful Sunday
EXTD=
EXTT0=
EXTT1=
EXTT2=
EXTT3=
EXTT4=
EXTT5=
EXTT6=
EXTT7=
EXTT8=
EXTT9=
EXTT10=
EXTT11=
EXTT12=
EXTT13=
EXTT14=
EXTT15=
EXTT16=
EXTT17=
EXTT18=
EXTT19=
EXTT20=
PLAYORDER=
